<?xml version="1.0" standalone="no"?>
<!DOCTYPE svg PUBLIC "-//W3C//DTD SVG 20010904//EN"
 "http://www.w3.org/TR/2001/REC-SVG-20010904/DTD/svg10.dtd">
<svg version="1.0" xmlns="http://www.w3.org/2000/svg"
 width="512.000000pt" height="512.000000pt" viewBox="0 0 512.000000 512.000000"
 preserveAspectRatio="xMidYMid meet">

<g transform="translate(0.000000,512.000000) scale(0.100000,-0.100000)"
fill="current" stroke="none">
<path d="M2795 4734 c-321 -31 -558 -95 -814 -221 -563 -278 -983 -788 -1141
-1387 -16 -61 -34 -140 -40 -176 -6 -36 -14 -73 -17 -84 -4 -15 -60 37 -282
258 l-276 276 -113 -113 -112 -112 463 -463 462 -462 460 460 460 460 -115
115 -115 115 -247 -247 c-137 -136 -248 -245 -248 -241 0 18 43 183 64 244
216 638 762 1104 1437 1230 130 24 420 29 558 10 421 -60 786 -241 1073 -532
276 -281 441 -599 513 -990 23 -122 31 -397 16 -521 -94 -761 -607 -1365
-1341 -1579 -296 -86 -664 -89 -967 -9 -121 32 -267 87 -377 142 -48 24 -89
43 -91 41 -10 -12 -155 -268 -155 -273 0 -3 64 -37 143 -75 524 -253 1082
-287 1641 -103 555 184 1001 575 1262 1108 255 523 292 1081 108 1647 -180
552 -585 1012 -1117 1268 -208 100 -386 156 -627 195 -91 16 -382 27 -465 19z"/>
<path d="M2700 3122 l0 -887 346 -260 c191 -143 352 -261 358 -262 15 -3 200
247 189 257 -4 4 -135 102 -290 219 l-283 211 0 805 0 805 -160 0 -160 0 0
-888z"/>
<path d="M1080 1763 c-69 -30 -129 -58 -133 -62 -13 -13 137 -301 156 -301 9
0 237 141 259 160 5 3 -16 50 -46 104 -30 54 -60 111 -67 127 -6 16 -19 29
-28 28 -9 0 -72 -25 -141 -56z"/>
<path d="M1427 1218 l-116 -101 50 -56 c54 -61 185 -181 198 -181 9 0 196 228
196 240 0 8 -199 200 -208 200 -2 0 -56 -46 -120 -102z"/>
</g>
</svg>
