<?xml version="1.0" standalone="no"?>
<!DOCTYPE svg PUBLIC "-//W3C//DTD SVG 20010904//EN"
 "http://www.w3.org/TR/2001/REC-SVG-20010904/DTD/svg10.dtd">
<svg version="1.0" xmlns="http://www.w3.org/2000/svg"
 width="512.000000pt" height="512.000000pt" viewBox="0 0 512.000000 512.000000"
 preserveAspectRatio="xMidYMid meet">

<g transform="translate(0.000000,512.000000) scale(0.100000,-0.100000)"
fill="current" stroke="none">
<path d="M1785 5109 c-441 -46 -859 -277 -1130 -624 -140 -180 -236 -369 -295
-581 -49 -177 -52 -213 -57 -729 l-5 -491 -64 -33 c-108 -56 -196 -175 -223
-299 -15 -70 -16 -1905 -1 -1983 34 -180 179 -325 359 -359 74 -14 3098 -14
3172 0 180 34 325 179 359 359 14 73 14 1899 0 1972 -25 132 -125 266 -238
318 l-52 24 0 423 c0 532 -11 654 -81 867 -84 257 -215 471 -405 661 -355 355
-840 527 -1339 475z m355 -304 c527 -71 966 -450 1116 -964 46 -156 54 -261
54 -713 l0 -418 -150 0 -150 0 0 416 c0 245 -4 445 -11 487 -87 584 -629 986
-1204 892 -233 -38 -431 -142 -596 -312 -132 -136 -217 -286 -267 -471 l-26
-97 -4 -457 -3 -458 -150 0 -151 0 5 468 c4 434 5 474 26 564 156 701 806
1159 1511 1063z m5 -608 c225 -63 416 -228 505 -437 53 -127 53 -125 57 -602
l4 -448 -756 0 -756 0 4 448 c4 503 2 490 83 649 101 201 291 346 519 397 82
19 261 15 340 -7z m1385 -1807 c26 -13 47 -34 60 -60 20 -38 20 -57 20 -975 0
-918 0 -937 -20 -975 -13 -26 -34 -47 -60 -60 -39 -20 -56 -20 -1575 -20
-1519 0 -1536 0 -1575 20 -26 13 -47 34 -60 60 -20 38 -20 57 -20 975 0 918 0
937 20 975 12 24 35 47 58 59 36 20 63 20 1575 21 1522 0 1538 0 1577 -20z"/>
<path d="M1871 2099 c-229 -45 -392 -281 -353 -511 24 -136 111 -260 227 -319
l65 -34 0 -258 c0 -239 1 -261 20 -297 23 -45 80 -80 130 -80 50 0 107 35 130
80 19 36 20 58 20 297 l0 258 65 34 c160 82 257 277 227 455 -42 257 -280 424
-531 375z m159 -309 c45 -23 80 -80 80 -130 0 -76 -74 -150 -150 -150 -50 0
-107 35 -130 80 -25 50 -25 90 0 140 37 73 124 99 200 60z"/>
</g>
</svg>
